{
    "asset" : {
        "generator" : "Khronos glTF Blender I/O v1.6.16",
        "version" : "2.0"
    },
    "scene" : 0,
    "scenes" : [
        {
            "name" : "Scene",
            "nodes" : [
                0,
                1,
                2
            ]
        }
    ],
    "nodes" : [
        {
            "name" : "Point",
            "translation" : [
                -0.3420407176017761,
                0.41034936904907227,
                0.4252474308013916
            ]
        },
        {
            "name" : "Camera",
            "rotation" : [
                0.42855143547058105,
                -0.3163038492202759,
                0.16322709619998932,
                0.8304531574249268
            ],
            "translation" : [
                -0.369695246219635,
                0.40771257877349854,
                0.4169407784938812
            ]
        },
        {
            "mesh" : 0,
            "name" : "Icosphere",
            "scale" : [
                0.14000000059604645,
                0.14000000059604645,
                0.14000001549720764
            ]
        }
    ],
    "materials" : [
        {
            "doubleSided" : true,
            "name" : "Material.001",
            "pbrMetallicRoughness" : {
                "baseColorFactor" : [
                    0.002272882964462042,
                    0.004676904994994402,
                    0.03741028532385826,
                    1
                ],
                "metallicFactor" : 0,
                "roughnessFactor" : 0.15000000596046448
            }
        }
    ],
    "meshes" : [
        {
            "name" : "Icosphere.003",
            "primitives" : [
                {
                    "attributes" : {
                        "POSITION" : 0,
                        "NORMAL" : 1,
                        "TEXCOORD_0" : 2
                    },
                    "indices" : 3,
                    "material" : 0
                }
            ]
        }
    ],
    "accessors" : [
        {
            "bufferView" : 0,
            "componentType" : 5126,
            "count" : 287,
            "max" : [
                1,
                1,
                0.9999999403953552
            ],
            "min" : [
                -0.9999999403953552,
                -1,
                -0.9999999403953552
            ],
            "type" : "VEC3"
        },
        {
            "bufferView" : 1,
            "componentType" : 5126,
            "count" : 287,
            "type" : "VEC3"
        },
        {
            "bufferView" : 2,
            "componentType" : 5126,
            "count" : 287,
            "type" : "VEC2"
        },
        {
            "bufferView" : 3,
            "componentType" : 5123,
            "count" : 1230,
            "type" : "SCALAR"
        }
    ],
    "bufferViews" : [
        {
            "buffer" : 0,
            "byteLength" : 3444,
            "byteOffset" : 0
        },
        {
            "buffer" : 0,
            "byteLength" : 3444,
            "byteOffset" : 3444
        },
        {
            "buffer" : 0,
            "byteLength" : 2296,
            "byteOffset" : 6888
        },
        {
            "buffer" : 0,
            "byteLength" : 2460,
            "byteOffset" : 9184
        }
    ],
    "buffers" : [
        {
            "byteLength" : 11644,
            "uri" : "data:application/octet-stream;base64,"
        }
    ]
}
