{
    "asset" : {
        "generator" : "Khronos glTF Blender I/O v1.6.16",
        "version" : "2.0"
    },
    "scene" : 0,
    "scenes" : [
        {
            "name" : "Scene",
            "nodes" : [
                0
            ]
        }
    ],
    "nodes" : [
        {
            "mesh" : 0,
            "name" : "Textured_Pin",
            "rotation" : [
                0.002066193614155054,
                0,
                0,
                0.9999978542327881
            ]
        }
    ],
    "materials" : [
        {
            "doubleSided" : true,
            "name" : "Standard_7",
            "pbrMetallicRoughness" : {
                "baseColorFactor" : [
                    0.06869972497224808,
                    0.8000000715255737,
                    0,
                    1
                ],
                "metallicFactor" : 0,
                "roughnessFactor" : 0.5
            }
        }
    ],
    "meshes" : [
        {
            "name" : "Textured_Pin",
            "primitives" : [
                {
                    "attributes" : {
                        "POSITION" : 0,
                        "NORMAL" : 1,
                        "TEXCOORD_0" : 2
                    },
                    "indices" : 3,
                    "material" : 0
                }
            ]
        }
    ],
    "accessors" : [
        {
            "bufferView" : 0,
            "componentType" : 5126,
            "count" : 5463,
            "max" : [
                6.042900085449219,
                37.86439895629883,
                6.042500019073486
            ],
            "min" : [
                -6.042900085449219,
                -0.006599999964237213,
                -6.042500019073486
            ],
            "type" : "VEC3"
        },
        {
            "bufferView" : 1,
            "componentType" : 5126,
            "count" : 5463,
            "type" : "VEC3"
        },
        {
            "bufferView" : 2,
            "componentType" : 5126,
            "count" : 5463,
            "type" : "VEC2"
        },
        {
            "bufferView" : 3,
            "componentType" : 5123,
            "count" : 31536,
            "type" : "SCALAR"
        }
    ],
    "bufferViews" : [
        {
            "buffer" : 0,
            "byteLength" : 65556,
            "byteOffset" : 0
        },
        {
            "buffer" : 0,
            "byteLength" : 65556,
            "byteOffset" : 65556
        },
        {
            "buffer" : 0,
            "byteLength" : 43704,
            "byteOffset" : 131112
        },
        {
            "buffer" : 0,
            "byteLength" : 63072,
            "byteOffset" : 174816
        }
    ],
    "buffers" : [
        {
            "byteLength" : 237888,
            "uri" : "data:application/octet-stream;base64,"
        }
    ]
}
